<svg width="24" height="24" viewBox="0 0 24 24" xmlns="http://www.w3.org/2000/svg">
<path d="M8.42041 21C7.92933 21.0007 7.44907 20.8598 7.0404 20.5952C6.63172 20.3305 6.31301 19.9539 6.12457 19.5131C5.93614 19.0723 5.88646 18.5871 5.98182 18.1189C6.07717 17.6506 6.31328 17.2204 6.66027 16.8826C7.00726 16.5448 7.44953 16.3147 7.93112 16.2213C8.41271 16.1279 8.91197 16.1755 9.36574 16.358C9.81951 16.5405 10.2074 16.8497 10.4803 17.2466C10.7532 17.6434 10.8989 18.11 10.8989 18.5873C10.8979 19.2263 10.6366 19.8389 10.1721 20.291C9.7076 20.7432 9.07777 20.9981 8.42041 21Z" />
<path d="M19.5552 21C19.0641 21.0007 18.5838 20.8598 18.1752 20.5952C17.7665 20.3305 17.4478 19.9539 17.2593 19.5131C17.0709 19.0723 17.0212 18.5871 17.1166 18.1189C17.2119 17.6506 17.448 17.2204 17.795 16.8826C18.142 16.5448 18.5843 16.3147 19.0659 16.2213C19.5475 16.1279 20.0467 16.1755 20.5005 16.358C20.9543 16.5405 21.3421 16.8497 21.6151 17.2466C21.888 17.6434 22.0336 18.11 22.0336 18.5873C22.0327 19.2263 21.7713 19.8389 21.3069 20.291C20.8424 20.7432 20.2125 20.9981 19.5552 21Z" />
<path d="M19.5551 18.9602H8.97005C8.82303 18.9596 8.67821 18.9254 8.54731 18.8603C8.41642 18.7952 8.30312 18.7011 8.21658 18.5856C8.13004 18.47 8.07269 18.3363 8.04917 18.1953C8.02565 18.0542 8.03662 17.9097 8.08119 17.7736L9.50115 14.3786C9.53978 14.2873 9.61414 14.2147 9.70786 14.1767C9.80158 14.1388 9.90699 14.1385 10.0009 14.1761C10.0948 14.2136 10.1695 14.2859 10.2086 14.377C10.2477 14.4681 10.2479 14.5705 10.2093 14.6618L8.80039 18.0353C8.79624 18.0784 8.808 18.1216 8.83358 18.1571C8.85016 18.1769 8.87095 18.1929 8.89451 18.204C8.91807 18.2151 8.94385 18.2212 8.97005 18.2217H19.5551C19.6569 18.2217 19.7544 18.261 19.8264 18.3309C19.8983 18.4008 19.9387 18.4956 19.9387 18.5945C19.9387 18.6934 19.8983 18.7882 19.8264 18.8581C19.7544 18.9281 19.6569 18.9673 19.5551 18.9673V18.9602Z" />
<path d="M22.8192 5.44491C22.7325 5.33441 22.621 5.24465 22.4931 5.18252C22.3653 5.12038 22.2245 5.0875 22.0816 5.08641L6.12649 5.08641L5.38885 3.41941C5.35944 3.34923 5.3079 3.28991 5.24164 3.24998C5.17537 3.21004 5.09779 3.19155 5.02004 3.19715L1.47938 3.19715C1.37814 3.19715 1.28105 3.23624 1.20946 3.30582C1.13787 3.37541 1.09766 3.46978 1.09766 3.56819C1.09766 3.6666 1.13787 3.76097 1.20946 3.83055C1.28105 3.90014 1.37814 3.93923 1.47938 3.93923L4.76924 3.93923L9.44217 14.3356C9.5148 14.4985 9.63484 14.6372 9.78752 14.7346C9.9402 14.8321 10.1189 14.884 10.3015 14.8841L19.4666 14.8841C19.6656 14.8846 19.8595 14.8233 20.02 14.7091C20.1806 14.595 20.2994 14.434 20.3592 14.2495L22.9409 6.24793C22.9853 6.11397 22.9975 5.97187 22.9764 5.83263C22.9552 5.69338 22.9015 5.56072 22.8192 5.44491ZM18.6847 12.7403L10.8769 12.7403C10.7756 12.7403 10.6785 12.7012 10.6069 12.6316C10.5354 12.562 10.4951 12.4676 10.4951 12.3692C10.4951 12.2708 10.5354 12.1764 10.6069 12.1069C10.6785 12.0373 10.7756 11.9982 10.8769 11.9982L18.6958 11.9982C18.7971 11.9982 18.8941 12.0373 18.9657 12.1069C19.0373 12.1764 19.0775 12.2708 19.0775 12.3692C19.0775 12.4676 19.0373 12.562 18.9657 12.6316C18.8941 12.7012 18.7971 12.7403 18.6958 12.7403H18.6847ZM19.3597 10.3921L10.1982 10.3921C10.097 10.3921 9.99991 10.353 9.92832 10.2835C9.85673 10.2139 9.81651 10.1195 9.81651 10.0211C9.81651 9.92268 9.85673 9.8283 9.92832 9.75872C9.99991 9.68914 10.097 9.65004 10.1982 9.65004L19.3597 9.65004C19.4609 9.65004 19.558 9.68914 19.6296 9.75872C19.7012 9.8283 19.7414 9.92268 19.7414 10.0211C19.7414 10.1195 19.7012 10.2139 19.6296 10.2835C19.558 10.353 19.4609 10.3921 19.3597 10.3921ZM19.9092 8.04399L9.65239 8.04399C9.55115 8.04399 9.45406 8.0049 9.38247 7.93531C9.31088 7.86573 9.27067 7.77136 9.27067 7.67295C9.27067 7.57454 9.31088 7.48017 9.38247 7.41058C9.45406 7.341 9.55115 7.30191 9.65239 7.30191L19.9018 7.30191C20.0031 7.30191 20.1002 7.341 20.1718 7.41058C20.2434 7.48017 20.2836 7.57454 20.2836 7.67295C20.2836 7.77136 20.2434 7.86573 20.1718 7.93531C20.1002 8.0049 20.0031 8.04399 19.9018 8.04399H19.9092Z" />
<path d="M2.20581 3.58436C2.20654 3.70079 2.17168 3.81481 2.10567 3.91196C2.03965 4.00912 1.94544 4.08503 1.83498 4.13008C1.72452 4.17513 1.60279 4.18729 1.48522 4.16501C1.36764 4.14273 1.25952 4.08702 1.17456 4.00494C1.0896 3.92286 1.03163 3.81811 1.00799 3.70397C0.98435 3.58982 0.996111 3.47142 1.04178 3.36379C1.08745 3.25615 1.16497 3.16411 1.26452 3.09935C1.36407 3.03459 1.48116 3.00001 1.60094 3.00001C1.6802 2.99954 1.75877 3.0143 1.83214 3.04346C1.9055 3.07261 1.97221 3.11558 2.02842 3.16989C2.08464 3.2242 2.12925 3.28877 2.15969 3.35991C2.19014 3.43104 2.20581 3.50732 2.20581 3.58436Z" />
</svg>
