<svg width="24" height="16" viewBox="0 0 24 16" xmlns="http://www.w3.org/2000/svg">
<path d="M0.4 2.28571C0.4 1.22652 1.21508 0.4 2.18182 0.4H8.72727C9.69401 0.4 10.5091 1.22652 10.5091 2.28571V13.7143C10.5091 14.7735 9.69401 15.6 8.72727 15.6H2.18182C1.21508 15.6 0.4 14.7735 0.4 13.7143V2.28571ZM13.4909 2.28571C13.4909 1.22652 14.306 0.4 15.2727 0.4H21.8182C22.7849 0.4 23.6 1.22652 23.6 2.28571V13.7143C23.6 14.7735 22.7849 15.6 21.8182 15.6H15.2727C14.306 15.6 13.4909 14.7735 13.4909 13.7143V2.28571Z" />
</svg>