<svg width="24" height="16" viewBox="0 0 24 16" xmlns="http://www.w3.org/2000/svg">
<path d="M10.9091 0.4H13.0909C14.1085 0.4 14.8727 1.14839 14.8727 2V5C14.8727 5.8516 14.1085 6.6 13.0909 6.6H10.9091C9.89155 6.6 9.12727 5.8516 9.12727 5V2C9.12727 1.14839 9.89155 0.4 10.9091 0.4ZM2.18182 0.4H4.36364C5.38118 0.4 6.14545 1.14839 6.14545 2V5C6.14545 5.8516 5.38118 6.6 4.36364 6.6H2.18182C1.16427 6.6 0.4 5.8516 0.4 5V2C0.4 1.14839 1.16427 0.4 2.18182 0.4ZM19.6364 0.4H21.8182C22.8357 0.4 23.6 1.14839 23.6 2V5C23.6 5.8516 22.8357 6.6 21.8182 6.6H19.6364C18.6188 6.6 17.8545 5.8516 17.8545 5V2C17.8545 1.14839 18.6188 0.4 19.6364 0.4ZM10.9091 9.4H13.0909C14.1085 9.4 14.8727 10.1484 14.8727 11V14C14.8727 14.8516 14.1085 15.6 13.0909 15.6H10.9091C9.89155 15.6 9.12727 14.8516 9.12727 14V11C9.12727 10.1484 9.89155 9.4 10.9091 9.4ZM2.18182 9.4H4.36364C5.38118 9.4 6.14545 10.1484 6.14545 11V14C6.14545 14.8516 5.38118 15.6 4.36364 15.6H2.18182C1.16427 15.6 0.4 14.8516 0.4 14V11C0.4 10.1484 1.16427 9.4 2.18182 9.4ZM19.6364 9.4H21.8182C22.8357 9.4 23.6 10.1484 23.6 11V14C23.6 14.8516 22.8357 15.6 21.8182 15.6H19.6364C18.6188 15.6 17.8545 14.8516 17.8545 14V11C17.8545 10.1484 18.6188 9.4 19.6364 9.4Z" />
</svg>
